<svg width="116.544" height="27.009" viewBox="0 0 116.544 27.009" xmlns="http://www.w3.org/2000/svg"><g id="svgGroup" stroke-linecap="round" fill-rule="evenodd" font-size="9pt" stroke="#ffffff" stroke-width="0.25mm" fill="#ffffff" style="stroke:#ffffff;stroke-width:0.25mm;fill:#ffffff"><path d="M 6.144 26.368 L 4.224 26.368 L 4.224 0.64 L 6.144 0.64 L 13.44 9.792 L 20.8 0.64 L 22.72 0.64 L 22.72 26.368 L 20.8 26.368 L 20.8 10.432 L 16.192 16.32 L 6.144 3.712 L 6.144 7.424 L 14.72 18.112 L 13.504 19.648 L 6.144 10.496 L 6.144 26.368 Z M 116.544 4.928 L 115.072 6.08 Q 113.472 4.16 111.04 3.04 A 12.384 12.384 0 0 0 106.308 1.932 A 14.473 14.473 0 0 0 105.728 1.92 A 12.867 12.867 0 0 0 101.753 2.519 A 11.55 11.55 0 0 0 99.616 3.456 Q 96.896 4.992 95.328 7.584 A 10.92 10.92 0 0 0 93.8 12.457 A 13.424 13.424 0 0 0 93.76 13.504 A 11.665 11.665 0 0 0 94.468 17.601 A 10.866 10.866 0 0 0 95.328 19.392 Q 96.896 22.016 99.616 23.552 A 11.987 11.987 0 0 0 104.884 25.064 A 14.448 14.448 0 0 0 105.728 25.088 A 12.947 12.947 0 0 0 109.637 24.51 A 11.87 11.87 0 0 0 111.04 23.968 A 11.646 11.646 0 0 0 114.163 21.892 A 10.781 10.781 0 0 0 115.072 20.928 L 116.544 22.08 A 13.386 13.386 0 0 1 112.392 25.405 A 15.6 15.6 0 0 1 111.872 25.664 A 13.973 13.973 0 0 1 106.148 27.003 A 16.245 16.245 0 0 1 105.728 27.008 Q 101.824 27.008 98.688 25.216 Q 95.552 23.424 93.696 20.352 A 12.98 12.98 0 0 1 91.84 13.534 A 15.305 15.305 0 0 1 91.84 13.504 A 13.588 13.588 0 0 1 92.563 9.023 A 12.363 12.363 0 0 1 93.696 6.624 Q 95.552 3.584 98.688 1.792 A 13.719 13.719 0 0 1 104.883 0.022 A 16.485 16.485 0 0 1 105.728 0 A 14.396 14.396 0 0 1 110.524 0.788 A 13.475 13.475 0 0 1 111.872 1.344 A 13.932 13.932 0 0 1 115.49 3.802 A 12.855 12.855 0 0 1 116.544 4.928 Z M 113.216 7.552 L 111.68 8.704 Q 109.504 6.144 105.728 6.144 A 8.748 8.748 0 0 0 102.953 6.568 A 7.381 7.381 0 0 0 100.192 8.224 A 6.895 6.895 0 0 0 97.987 13.256 A 9.089 9.089 0 0 0 97.984 13.504 A 7.309 7.309 0 0 0 98.589 16.507 A 7.072 7.072 0 0 0 100.192 18.752 A 7.545 7.545 0 0 0 105.064 20.843 A 9.978 9.978 0 0 0 105.728 20.864 Q 109.504 20.864 111.68 18.304 L 113.216 19.456 A 8.939 8.939 0 0 1 110.346 21.714 A 10.469 10.469 0 0 1 109.984 21.888 Q 108.032 22.784 105.728 22.784 Q 102.976 22.784 100.8 21.568 Q 98.624 20.352 97.344 18.24 A 8.905 8.905 0 0 1 96.067 13.749 A 10.614 10.614 0 0 1 96.064 13.504 Q 96.064 10.88 97.344 8.768 Q 98.624 6.656 100.8 5.44 A 9.624 9.624 0 0 1 104.716 4.267 A 11.773 11.773 0 0 1 105.728 4.224 A 10.369 10.369 0 0 1 108.922 4.708 A 9.563 9.563 0 0 1 109.984 5.12 A 9.333 9.333 0 0 1 112.443 6.739 A 8.587 8.587 0 0 1 113.216 7.552 Z M 42.496 2.56 L 38.208 2.56 L 38.208 4.864 L 42.688 4.864 A 12.522 12.522 0 0 1 45.744 5.266 A 9.069 9.069 0 0 1 49.536 7.296 A 7.828 7.828 0 0 1 52.141 12.855 A 10.709 10.709 0 0 1 52.16 13.504 A 9.293 9.293 0 0 1 51.722 16.423 A 7.62 7.62 0 0 1 49.504 19.776 A 9.199 9.199 0 0 1 44.792 21.977 A 12.745 12.745 0 0 1 42.688 22.144 L 38.208 22.144 L 38.208 24.448 L 42.496 24.448 A 15.82 15.82 0 0 0 45.659 24.146 A 12.083 12.083 0 0 0 48.768 23.072 Q 51.456 21.696 52.96 19.2 A 10.542 10.542 0 0 0 54.426 14.499 A 12.95 12.95 0 0 0 54.464 13.504 A 11.982 11.982 0 0 0 54.067 10.362 A 9.904 9.904 0 0 0 52.96 7.776 Q 51.456 5.312 48.768 3.936 Q 46.08 2.56 42.496 2.56 Z M 74.112 27.008 Q 70.208 27.008 67.072 25.216 Q 63.936 23.424 62.08 20.352 A 12.98 12.98 0 0 1 60.224 13.534 A 15.305 15.305 0 0 1 60.224 13.504 A 13.588 13.588 0 0 1 60.947 9.023 A 12.363 12.363 0 0 1 62.08 6.624 Q 63.936 3.584 67.072 1.792 A 13.719 13.719 0 0 1 73.267 0.022 A 16.485 16.485 0 0 1 74.112 0 Q 78.016 0 81.152 1.792 Q 84.288 3.584 86.144 6.624 A 12.762 12.762 0 0 1 87.983 12.777 A 15.434 15.434 0 0 1 88 13.504 A 13.188 13.188 0 0 1 86.867 18.975 A 12.849 12.849 0 0 1 86.144 20.352 Q 84.288 23.424 81.152 25.216 A 13.719 13.719 0 0 1 74.957 26.987 A 16.485 16.485 0 0 1 74.112 27.008 Z M 42.688 26.368 L 36.288 26.368 L 36.288 0.64 L 42.688 0.64 Q 46.72 0.704 49.792 2.368 Q 52.864 4.032 54.624 6.912 A 12.054 12.054 0 0 1 56.337 12.309 A 14.85 14.85 0 0 1 56.384 13.504 A 13.365 13.365 0 0 1 55.772 17.605 A 11.854 11.854 0 0 1 54.624 20.128 Q 52.864 23.04 49.76 24.704 Q 46.656 26.368 42.688 26.368 Z M 86.08 13.504 A 12.041 12.041 0 0 0 85.57 9.948 A 10.524 10.524 0 0 0 84.512 7.584 Q 82.944 4.992 80.224 3.456 A 11.987 11.987 0 0 0 74.956 1.945 A 14.448 14.448 0 0 0 74.112 1.92 A 12.867 12.867 0 0 0 70.137 2.519 A 11.55 11.55 0 0 0 68 3.456 Q 65.28 4.992 63.712 7.584 A 10.92 10.92 0 0 0 62.184 12.457 A 13.424 13.424 0 0 0 62.144 13.504 A 11.665 11.665 0 0 0 62.852 17.601 A 10.866 10.866 0 0 0 63.712 19.392 Q 65.28 22.016 68 23.552 A 11.987 11.987 0 0 0 73.268 25.064 A 14.448 14.448 0 0 0 74.112 25.088 A 12.867 12.867 0 0 0 78.087 24.489 A 11.55 11.55 0 0 0 80.224 23.552 Q 82.944 22.016 84.512 19.392 Q 86.08 16.768 86.08 13.504 Z M 74.112 22.784 Q 71.36 22.784 69.184 21.568 Q 67.008 20.352 65.728 18.24 A 8.905 8.905 0 0 1 64.451 13.749 A 10.614 10.614 0 0 1 64.448 13.504 Q 64.448 10.88 65.728 8.768 Q 67.008 6.656 69.184 5.44 A 9.624 9.624 0 0 1 73.1 4.267 A 11.773 11.773 0 0 1 74.112 4.224 Q 76.864 4.224 79.04 5.44 Q 81.216 6.656 82.496 8.768 A 8.905 8.905 0 0 1 83.773 13.26 A 10.614 10.614 0 0 1 83.776 13.504 Q 83.776 16.128 82.496 18.24 Q 81.216 20.352 79.04 21.568 A 9.624 9.624 0 0 1 75.124 22.742 A 11.773 11.773 0 0 1 74.112 22.784 Z M 1.92 26.368 L 0 26.368 L 0 0.64 L 1.92 0.64 L 1.92 26.368 Z M 26.944 26.368 L 25.024 26.368 L 25.024 0.64 L 26.944 0.64 L 26.944 26.368 Z M 33.984 26.368 L 32.064 26.368 L 32.064 0.64 L 33.984 0.64 L 33.984 26.368 Z M 81.856 13.504 A 7.58 7.58 0 0 0 81.379 10.771 A 6.828 6.828 0 0 0 79.648 8.224 A 7.581 7.581 0 0 0 74.877 6.173 A 10.056 10.056 0 0 0 74.112 6.144 A 8.748 8.748 0 0 0 71.337 6.568 A 7.381 7.381 0 0 0 68.576 8.224 A 6.895 6.895 0 0 0 66.371 13.256 A 9.089 9.089 0 0 0 66.368 13.504 A 7.309 7.309 0 0 0 66.973 16.507 A 7.072 7.072 0 0 0 68.576 18.752 A 7.545 7.545 0 0 0 73.448 20.843 A 9.978 9.978 0 0 0 74.112 20.864 Q 77.44 20.864 79.648 18.752 A 6.941 6.941 0 0 0 81.854 13.699 A 8.774 8.774 0 0 0 81.856 13.504 Z M 42.496 6.784 L 38.208 6.784 L 38.208 20.224 L 42.496 20.224 Q 46.08 20.224 48.16 18.432 A 5.87 5.87 0 0 0 50.167 14.633 A 8.421 8.421 0 0 0 50.24 13.504 A 7.592 7.592 0 0 0 49.949 11.347 A 5.724 5.724 0 0 0 48.16 8.576 A 7.023 7.023 0 0 0 45.367 7.134 Q 44.32 6.85 43.079 6.797 A 13.612 13.612 0 0 0 42.496 6.784 Z M 20.8 7.36 L 20.8 3.648 L 14.72 11.328 L 16.192 13.184 L 20.8 7.36 Z" vector-effect="non-scaling-stroke"/></g></svg>